# xmcd CD database file generated by Grip 3.3.1
# 
# Track frame offsets:
#       200
#       16400
#       27125
#       66500
#       85625
#       103250
#       144500
#       159875
#       190550
#       204650
#       234500
# 
# Disc length: 3350 seconds
# 
# Revision: 1
# Processed by: cddbd v1.5.2PL0 Copyright (c) Steve Scherf et al.
# Submitted via: Grip 3.3.1
# 
DISCID=880d140b
DTITLE=Enver Izmailov and Geoff Warren - Dancing over the Moon
DYEAR=1996
DGENRE=Jazz
TTITLE0=Terrain turquoise
TTITLE1=Touch Down at Falconara
TTITLE2=Ancona danza
TTITLE3=Among the Hops
TTITLE4=Near the Grapes
TTITLE5=Boina
TTITLE6=Dolu
TTITLE7=Lonely Dancer
TTITLE8=Enver's Mood #2
TTITLE9=Departure
TTITLE10=White Minarets
EXTD=
EXTT0=
EXTT1=
EXTT2=
EXTT3=
EXTT4=
EXTT5=
EXTT6=
EXTT7=
EXTT8=
EXTT9=
EXTT10=
PLAYORDER=
